<svg id="Layer_1" data-name="Layer 1" xmlns="http://www.w3.org/2000/svg" width="25.22" height="25.22" viewBox="0 0 25.22 25.22">
  <title>treadmill-icon</title>
  <line x1="18.74" y1="8.46" x2="22.72" y2="6.76" style="fill: none;stroke: #000;stroke-linecap: round;stroke-miterlimit: 10;stroke-width: 1.25px"/>
  <g>
    <path d="M0,.74H25.25V26H0Z" transform="translate(-0.03 -0.74)" style="fill: none"/>
    <path d="M12.28,5.77A1.74,1.74,0,1,0,10.54,4,1.74,1.74,0,0,0,12.28,5.77ZM9.15,17.86,10,14l1.83,1.74V21h1.74V14.47l-1.83-1.74.52-2.61a6.36,6.36,0,0,0,4.79,2.18V10.56a4.27,4.27,0,0,1-3.74-2.09l-.87-1.39A1.8,1.8,0,0,0,11,6.21c-.26,0-.44.09-.7.09L5.76,8.21V12.3H7.5v-3l1.57-.61-1.4,7-4.26-.87-.35,1.74Z" transform="translate(-0.03 -0.74)"/>
    <line x1="1.52" y1="21.4" x2="17.7" y2="21.4" style="fill: none;stroke: #000;stroke-linecap: round;stroke-miterlimit: 10;stroke-width: 1.5px"/>
    <line x1="16.19" y1="21.07" x2="21.61" y2="7.42" style="fill: none;stroke: #000;stroke-linecap: round;stroke-miterlimit: 10;stroke-width: 1.5px"/>
  </g>
</svg>
